G04 #@! TF.GenerationSoftware,KiCad,Pcbnew,7.0.7*
G04 #@! TF.CreationDate,2023-10-03T16:10:38+02:00*
G04 #@! TF.ProjectId,DuPal_DIP,44755061-6c5f-4444-9950-2e6b69636164,rev?*
G04 #@! TF.SameCoordinates,Original*
G04 #@! TF.FileFunction,Legend,Bot*
G04 #@! TF.FilePolarity,Positive*
%FSLAX46Y46*%
G04 Gerber Fmt 4.6, Leading zero omitted, Abs format (unit mm)*
G04 Created by KiCad (PCBNEW 7.0.7) date 2023-10-03 16:10:38*
%MOMM*%
%LPD*%
G01*
G04 APERTURE LIST*
G04 Aperture macros list*
%AMRoundRect*
0 Rectangle with rounded corners*
0 $1 Rounding radius*
0 $2 $3 $4 $5 $6 $7 $8 $9 X,Y pos of 4 corners*
0 Add a 4 corners polygon primitive as box body*
4,1,4,$2,$3,$4,$5,$6,$7,$8,$9,$2,$3,0*
0 Add four circle primitives for the rounded corners*
1,1,$1+$1,$2,$3*
1,1,$1+$1,$4,$5*
1,1,$1+$1,$6,$7*
1,1,$1+$1,$8,$9*
0 Add four rect primitives between the rounded corners*
20,1,$1+$1,$2,$3,$4,$5,0*
20,1,$1+$1,$4,$5,$6,$7,0*
20,1,$1+$1,$6,$7,$8,$9,0*
20,1,$1+$1,$8,$9,$2,$3,0*%
G04 Aperture macros list end*
%ADD10C,0.300000*%
%ADD11C,0.150000*%
%ADD12C,0.010000*%
%ADD13C,1.702000*%
%ADD14RoundRect,0.051000X-0.800000X-0.800000X0.800000X-0.800000X0.800000X0.800000X-0.800000X0.800000X0*%
%ADD15RoundRect,0.051000X0.800000X-0.800000X0.800000X0.800000X-0.800000X0.800000X-0.800000X-0.800000X0*%
%ADD16RoundRect,0.051000X-0.900000X-0.900000X0.900000X-0.900000X0.900000X0.900000X-0.900000X0.900000X0*%
%ADD17C,1.902000*%
%ADD18RoundRect,0.051000X0.900000X0.900000X-0.900000X0.900000X-0.900000X-0.900000X0.900000X-0.900000X0*%
%ADD19RoundRect,0.051000X-1.100000X-1.100000X1.100000X-1.100000X1.100000X1.100000X-1.100000X1.100000X0*%
%ADD20O,2.302000X2.302000*%
%ADD21RoundRect,0.051000X0.863600X0.863600X-0.863600X0.863600X-0.863600X-0.863600X0.863600X-0.863600X0*%
%ADD22O,1.829200X1.829200*%
%ADD23C,4.102000*%
%ADD24RoundRect,0.051000X0.800000X0.800000X-0.800000X0.800000X-0.800000X-0.800000X0.800000X-0.800000X0*%
%ADD25RoundRect,0.051000X-1.750000X1.750000X-1.750000X-1.750000X1.750000X-1.750000X1.750000X1.750000X0*%
%ADD26RoundRect,0.801000X-1.000000X0.750000X-1.000000X-0.750000X1.000000X-0.750000X1.000000X0.750000X0*%
%ADD27RoundRect,0.926000X-0.875000X0.875000X-0.875000X-0.875000X0.875000X-0.875000X0.875000X0.875000X0*%
%ADD28C,1.502000*%
%ADD29O,1.502000X1.502000*%
%ADD30C,2.102000*%
%ADD31O,2.302000X3.602000*%
%ADD32RoundRect,0.051000X0.750000X1.250000X-0.750000X1.250000X-0.750000X-1.250000X0.750000X-1.250000X0*%
%ADD33O,1.602000X2.602000*%
%ADD34O,1.702000X1.702000*%
%ADD35RoundRect,0.051000X-1.000000X-0.720000X1.000000X-0.720000X1.000000X0.720000X-1.000000X0.720000X0*%
%ADD36O,2.102000X1.542000*%
%ADD37O,3.602000X3.602000*%
%ADD38RoundRect,0.051000X1.000000X-0.952500X1.000000X0.952500X-1.000000X0.952500X-1.000000X-0.952500X0*%
%ADD39O,2.102000X2.007000*%
%ADD40C,1.602000*%
%ADD41C,4.602000*%
G04 APERTURE END LIST*
D10*
X116827142Y-131345471D02*
X116898570Y-131416900D01*
X116898570Y-131416900D02*
X117112856Y-131488328D01*
X117112856Y-131488328D02*
X117255713Y-131488328D01*
X117255713Y-131488328D02*
X117469999Y-131416900D01*
X117469999Y-131416900D02*
X117612856Y-131274042D01*
X117612856Y-131274042D02*
X117684285Y-131131185D01*
X117684285Y-131131185D02*
X117755713Y-130845471D01*
X117755713Y-130845471D02*
X117755713Y-130631185D01*
X117755713Y-130631185D02*
X117684285Y-130345471D01*
X117684285Y-130345471D02*
X117612856Y-130202614D01*
X117612856Y-130202614D02*
X117469999Y-130059757D01*
X117469999Y-130059757D02*
X117255713Y-129988328D01*
X117255713Y-129988328D02*
X117112856Y-129988328D01*
X117112856Y-129988328D02*
X116898570Y-130059757D01*
X116898570Y-130059757D02*
X116827142Y-130131185D01*
X115327142Y-131345471D02*
X115398570Y-131416900D01*
X115398570Y-131416900D02*
X115612856Y-131488328D01*
X115612856Y-131488328D02*
X115755713Y-131488328D01*
X115755713Y-131488328D02*
X115969999Y-131416900D01*
X115969999Y-131416900D02*
X116112856Y-131274042D01*
X116112856Y-131274042D02*
X116184285Y-131131185D01*
X116184285Y-131131185D02*
X116255713Y-130845471D01*
X116255713Y-130845471D02*
X116255713Y-130631185D01*
X116255713Y-130631185D02*
X116184285Y-130345471D01*
X116184285Y-130345471D02*
X116112856Y-130202614D01*
X116112856Y-130202614D02*
X115969999Y-130059757D01*
X115969999Y-130059757D02*
X115755713Y-129988328D01*
X115755713Y-129988328D02*
X115612856Y-129988328D01*
X115612856Y-129988328D02*
X115398570Y-130059757D01*
X115398570Y-130059757D02*
X115327142Y-130131185D01*
X114684285Y-130916900D02*
X113541428Y-130916900D01*
X112327142Y-130702614D02*
X112112856Y-130774042D01*
X112112856Y-130774042D02*
X112041427Y-130845471D01*
X112041427Y-130845471D02*
X111969999Y-130988328D01*
X111969999Y-130988328D02*
X111969999Y-131202614D01*
X111969999Y-131202614D02*
X112041427Y-131345471D01*
X112041427Y-131345471D02*
X112112856Y-131416900D01*
X112112856Y-131416900D02*
X112255713Y-131488328D01*
X112255713Y-131488328D02*
X112827142Y-131488328D01*
X112827142Y-131488328D02*
X112827142Y-129988328D01*
X112827142Y-129988328D02*
X112327142Y-129988328D01*
X112327142Y-129988328D02*
X112184285Y-130059757D01*
X112184285Y-130059757D02*
X112112856Y-130131185D01*
X112112856Y-130131185D02*
X112041427Y-130274042D01*
X112041427Y-130274042D02*
X112041427Y-130416900D01*
X112041427Y-130416900D02*
X112112856Y-130559757D01*
X112112856Y-130559757D02*
X112184285Y-130631185D01*
X112184285Y-130631185D02*
X112327142Y-130702614D01*
X112327142Y-130702614D02*
X112827142Y-130702614D01*
X111041427Y-130774042D02*
X111041427Y-131488328D01*
X111541427Y-129988328D02*
X111041427Y-130774042D01*
X111041427Y-130774042D02*
X110541427Y-129988328D01*
X110041428Y-130916900D02*
X108898571Y-130916900D01*
X108255713Y-131416900D02*
X108041428Y-131488328D01*
X108041428Y-131488328D02*
X107684285Y-131488328D01*
X107684285Y-131488328D02*
X107541428Y-131416900D01*
X107541428Y-131416900D02*
X107469999Y-131345471D01*
X107469999Y-131345471D02*
X107398570Y-131202614D01*
X107398570Y-131202614D02*
X107398570Y-131059757D01*
X107398570Y-131059757D02*
X107469999Y-130916900D01*
X107469999Y-130916900D02*
X107541428Y-130845471D01*
X107541428Y-130845471D02*
X107684285Y-130774042D01*
X107684285Y-130774042D02*
X107969999Y-130702614D01*
X107969999Y-130702614D02*
X108112856Y-130631185D01*
X108112856Y-130631185D02*
X108184285Y-130559757D01*
X108184285Y-130559757D02*
X108255713Y-130416900D01*
X108255713Y-130416900D02*
X108255713Y-130274042D01*
X108255713Y-130274042D02*
X108184285Y-130131185D01*
X108184285Y-130131185D02*
X108112856Y-130059757D01*
X108112856Y-130059757D02*
X107969999Y-129988328D01*
X107969999Y-129988328D02*
X107612856Y-129988328D01*
X107612856Y-129988328D02*
X107398570Y-130059757D01*
X106827142Y-131059757D02*
X106112857Y-131059757D01*
X106969999Y-131488328D02*
X106469999Y-129988328D01*
X106469999Y-129988328D02*
X105969999Y-131488328D01*
X105470000Y-130916900D02*
X104327143Y-130916900D01*
X102970000Y-130488328D02*
X102970000Y-131488328D01*
X103327142Y-129916900D02*
X103684285Y-130988328D01*
X103684285Y-130988328D02*
X102755714Y-130988328D01*
X102184286Y-131345471D02*
X102112857Y-131416900D01*
X102112857Y-131416900D02*
X102184286Y-131488328D01*
X102184286Y-131488328D02*
X102255714Y-131416900D01*
X102255714Y-131416900D02*
X102184286Y-131345471D01*
X102184286Y-131345471D02*
X102184286Y-131488328D01*
X101184285Y-129988328D02*
X101041428Y-129988328D01*
X101041428Y-129988328D02*
X100898571Y-130059757D01*
X100898571Y-130059757D02*
X100827143Y-130131185D01*
X100827143Y-130131185D02*
X100755714Y-130274042D01*
X100755714Y-130274042D02*
X100684285Y-130559757D01*
X100684285Y-130559757D02*
X100684285Y-130916900D01*
X100684285Y-130916900D02*
X100755714Y-131202614D01*
X100755714Y-131202614D02*
X100827143Y-131345471D01*
X100827143Y-131345471D02*
X100898571Y-131416900D01*
X100898571Y-131416900D02*
X101041428Y-131488328D01*
X101041428Y-131488328D02*
X101184285Y-131488328D01*
X101184285Y-131488328D02*
X101327143Y-131416900D01*
X101327143Y-131416900D02*
X101398571Y-131345471D01*
X101398571Y-131345471D02*
X101470000Y-131202614D01*
X101470000Y-131202614D02*
X101541428Y-130916900D01*
X101541428Y-130916900D02*
X101541428Y-130559757D01*
X101541428Y-130559757D02*
X101470000Y-130274042D01*
X101470000Y-130274042D02*
X101398571Y-130131185D01*
X101398571Y-130131185D02*
X101327143Y-130059757D01*
X101327143Y-130059757D02*
X101184285Y-129988328D01*
D11*
X196769819Y-63706667D02*
X196769819Y-64373333D01*
X196769819Y-64373333D02*
X197769819Y-63944762D01*
X197388866Y-64754286D02*
X197388866Y-65516191D01*
X197769819Y-66516190D02*
X197769819Y-65944762D01*
X197769819Y-66230476D02*
X196769819Y-66230476D01*
X196769819Y-66230476D02*
X196912676Y-66135238D01*
X196912676Y-66135238D02*
X197007914Y-66040000D01*
X197007914Y-66040000D02*
X197055533Y-65944762D01*
X196865057Y-66897143D02*
X196817438Y-66944762D01*
X196817438Y-66944762D02*
X196769819Y-67040000D01*
X196769819Y-67040000D02*
X196769819Y-67278095D01*
X196769819Y-67278095D02*
X196817438Y-67373333D01*
X196817438Y-67373333D02*
X196865057Y-67420952D01*
X196865057Y-67420952D02*
X196960295Y-67468571D01*
X196960295Y-67468571D02*
X197055533Y-67468571D01*
X197055533Y-67468571D02*
X197198390Y-67420952D01*
X197198390Y-67420952D02*
X197769819Y-66849524D01*
X197769819Y-66849524D02*
X197769819Y-67468571D01*
X196769819Y-67754286D02*
X197769819Y-68087619D01*
X197769819Y-68087619D02*
X196769819Y-68420952D01*
X198379819Y-61754286D02*
X198379819Y-62325714D01*
X199379819Y-62040000D02*
X198379819Y-62040000D01*
X199379819Y-62659048D02*
X198379819Y-62659048D01*
X199379819Y-63135238D02*
X198379819Y-63135238D01*
X198379819Y-63135238D02*
X198379819Y-63516190D01*
X198379819Y-63516190D02*
X198427438Y-63611428D01*
X198427438Y-63611428D02*
X198475057Y-63659047D01*
X198475057Y-63659047D02*
X198570295Y-63706666D01*
X198570295Y-63706666D02*
X198713152Y-63706666D01*
X198713152Y-63706666D02*
X198808390Y-63659047D01*
X198808390Y-63659047D02*
X198856009Y-63611428D01*
X198856009Y-63611428D02*
X198903628Y-63516190D01*
X198903628Y-63516190D02*
X198903628Y-63135238D01*
X198713152Y-64897143D02*
X199713152Y-64897143D01*
X198760771Y-64897143D02*
X198713152Y-64992381D01*
X198713152Y-64992381D02*
X198713152Y-65182857D01*
X198713152Y-65182857D02*
X198760771Y-65278095D01*
X198760771Y-65278095D02*
X198808390Y-65325714D01*
X198808390Y-65325714D02*
X198903628Y-65373333D01*
X198903628Y-65373333D02*
X199189342Y-65373333D01*
X199189342Y-65373333D02*
X199284580Y-65325714D01*
X199284580Y-65325714D02*
X199332200Y-65278095D01*
X199332200Y-65278095D02*
X199379819Y-65182857D01*
X199379819Y-65182857D02*
X199379819Y-64992381D01*
X199379819Y-64992381D02*
X199332200Y-64897143D01*
X199379819Y-65944762D02*
X199332200Y-65849524D01*
X199332200Y-65849524D02*
X199284580Y-65801905D01*
X199284580Y-65801905D02*
X199189342Y-65754286D01*
X199189342Y-65754286D02*
X198903628Y-65754286D01*
X198903628Y-65754286D02*
X198808390Y-65801905D01*
X198808390Y-65801905D02*
X198760771Y-65849524D01*
X198760771Y-65849524D02*
X198713152Y-65944762D01*
X198713152Y-65944762D02*
X198713152Y-66087619D01*
X198713152Y-66087619D02*
X198760771Y-66182857D01*
X198760771Y-66182857D02*
X198808390Y-66230476D01*
X198808390Y-66230476D02*
X198903628Y-66278095D01*
X198903628Y-66278095D02*
X199189342Y-66278095D01*
X199189342Y-66278095D02*
X199284580Y-66230476D01*
X199284580Y-66230476D02*
X199332200Y-66182857D01*
X199332200Y-66182857D02*
X199379819Y-66087619D01*
X199379819Y-66087619D02*
X199379819Y-65944762D01*
X199332200Y-66659048D02*
X199379819Y-66754286D01*
X199379819Y-66754286D02*
X199379819Y-66944762D01*
X199379819Y-66944762D02*
X199332200Y-67040000D01*
X199332200Y-67040000D02*
X199236961Y-67087619D01*
X199236961Y-67087619D02*
X199189342Y-67087619D01*
X199189342Y-67087619D02*
X199094104Y-67040000D01*
X199094104Y-67040000D02*
X199046485Y-66944762D01*
X199046485Y-66944762D02*
X199046485Y-66801905D01*
X199046485Y-66801905D02*
X198998866Y-66706667D01*
X198998866Y-66706667D02*
X198903628Y-66659048D01*
X198903628Y-66659048D02*
X198856009Y-66659048D01*
X198856009Y-66659048D02*
X198760771Y-66706667D01*
X198760771Y-66706667D02*
X198713152Y-66801905D01*
X198713152Y-66801905D02*
X198713152Y-66944762D01*
X198713152Y-66944762D02*
X198760771Y-67040000D01*
X199379819Y-67516191D02*
X198713152Y-67516191D01*
X198379819Y-67516191D02*
X198427438Y-67468572D01*
X198427438Y-67468572D02*
X198475057Y-67516191D01*
X198475057Y-67516191D02*
X198427438Y-67563810D01*
X198427438Y-67563810D02*
X198379819Y-67516191D01*
X198379819Y-67516191D02*
X198475057Y-67516191D01*
X198713152Y-67849524D02*
X198713152Y-68230476D01*
X198379819Y-67992381D02*
X199236961Y-67992381D01*
X199236961Y-67992381D02*
X199332200Y-68040000D01*
X199332200Y-68040000D02*
X199379819Y-68135238D01*
X199379819Y-68135238D02*
X199379819Y-68230476D01*
X199379819Y-68563810D02*
X198713152Y-68563810D01*
X198379819Y-68563810D02*
X198427438Y-68516191D01*
X198427438Y-68516191D02*
X198475057Y-68563810D01*
X198475057Y-68563810D02*
X198427438Y-68611429D01*
X198427438Y-68611429D02*
X198379819Y-68563810D01*
X198379819Y-68563810D02*
X198475057Y-68563810D01*
X198713152Y-68944762D02*
X199379819Y-69182857D01*
X199379819Y-69182857D02*
X198713152Y-69420952D01*
X199332200Y-70182857D02*
X199379819Y-70087619D01*
X199379819Y-70087619D02*
X199379819Y-69897143D01*
X199379819Y-69897143D02*
X199332200Y-69801905D01*
X199332200Y-69801905D02*
X199236961Y-69754286D01*
X199236961Y-69754286D02*
X198856009Y-69754286D01*
X198856009Y-69754286D02*
X198760771Y-69801905D01*
X198760771Y-69801905D02*
X198713152Y-69897143D01*
X198713152Y-69897143D02*
X198713152Y-70087619D01*
X198713152Y-70087619D02*
X198760771Y-70182857D01*
X198760771Y-70182857D02*
X198856009Y-70230476D01*
X198856009Y-70230476D02*
X198951247Y-70230476D01*
X198951247Y-70230476D02*
X199046485Y-69754286D01*
D12*
X194394667Y-97592445D02*
X194084223Y-97592445D01*
X194084223Y-96294222D01*
X191826445Y-96294222D01*
X191826445Y-95955556D01*
X194394667Y-95955556D01*
X194394667Y-97592445D01*
G36*
X194394667Y-97592445D02*
G01*
X194084223Y-97592445D01*
X194084223Y-96294222D01*
X191826445Y-96294222D01*
X191826445Y-95955556D01*
X194394667Y-95955556D01*
X194394667Y-97592445D01*
G37*
X194027778Y-86711389D02*
X194016809Y-86971775D01*
X193978228Y-87213732D01*
X193909876Y-87413726D01*
X193809701Y-87576058D01*
X193675649Y-87705030D01*
X193505667Y-87804943D01*
X193448712Y-87829038D01*
X193378708Y-87850000D01*
X193296811Y-87862423D01*
X193188189Y-87868366D01*
X193038005Y-87869889D01*
X192967604Y-87869750D01*
X192844230Y-87867525D01*
X192755400Y-87860521D01*
X192685987Y-87846128D01*
X192620869Y-87821732D01*
X192544921Y-87784721D01*
X192517495Y-87769986D01*
X192350420Y-87644641D01*
X192216389Y-87478679D01*
X192122876Y-87281018D01*
X192120043Y-87272269D01*
X192093173Y-87150966D01*
X192072618Y-86982792D01*
X192059451Y-86776278D01*
X192044731Y-86416445D01*
X194027778Y-86416445D01*
X194027778Y-86711389D01*
G36*
X194027778Y-86711389D02*
G01*
X194016809Y-86971775D01*
X193978228Y-87213732D01*
X193909876Y-87413726D01*
X193809701Y-87576058D01*
X193675649Y-87705030D01*
X193505667Y-87804943D01*
X193448712Y-87829038D01*
X193378708Y-87850000D01*
X193296811Y-87862423D01*
X193188189Y-87868366D01*
X193038005Y-87869889D01*
X192967604Y-87869750D01*
X192844230Y-87867525D01*
X192755400Y-87860521D01*
X192685987Y-87846128D01*
X192620869Y-87821732D01*
X192544921Y-87784721D01*
X192517495Y-87769986D01*
X192350420Y-87644641D01*
X192216389Y-87478679D01*
X192122876Y-87281018D01*
X192120043Y-87272269D01*
X192093173Y-87150966D01*
X192072618Y-86982792D01*
X192059451Y-86776278D01*
X192044731Y-86416445D01*
X194027778Y-86416445D01*
X194027778Y-86711389D01*
G37*
X192762478Y-91496445D02*
X194394667Y-91496445D01*
X194394667Y-91835111D01*
X193442732Y-91835111D01*
X193429350Y-92182493D01*
X193423342Y-92312532D01*
X193413488Y-92436062D01*
X193398725Y-92529643D01*
X193376572Y-92608005D01*
X193344547Y-92685878D01*
X193294529Y-92782066D01*
X193165662Y-92950917D01*
X193006419Y-93072518D01*
X192818237Y-93145929D01*
X192602556Y-93170210D01*
X192500309Y-93164928D01*
X192301851Y-93119470D01*
X192135734Y-93028142D01*
X192003202Y-92891762D01*
X191905501Y-92711151D01*
X191898278Y-92692392D01*
X191877602Y-92629600D01*
X191862247Y-92560966D01*
X191851135Y-92476371D01*
X191843190Y-92365695D01*
X191837332Y-92218815D01*
X191835006Y-92126146D01*
X192113029Y-92126146D01*
X192123750Y-92279351D01*
X192146134Y-92423732D01*
X192177541Y-92543457D01*
X192215333Y-92622695D01*
X192323500Y-92728791D01*
X192458444Y-92796400D01*
X192604993Y-92821132D01*
X192752179Y-92804307D01*
X192889032Y-92747246D01*
X193004580Y-92651268D01*
X193087855Y-92517694D01*
X193097580Y-92487755D01*
X193116402Y-92396211D01*
X193132889Y-92275621D01*
X193144314Y-92144042D01*
X193147022Y-92097542D01*
X193151634Y-91980664D01*
X193149327Y-91906934D01*
X193139311Y-91866434D01*
X193120794Y-91849246D01*
X193095549Y-91845615D01*
X193019726Y-91841999D01*
X192905291Y-91839999D01*
X192762478Y-91839767D01*
X192601520Y-91841457D01*
X192122778Y-91849222D01*
X192114186Y-92015806D01*
X192113029Y-92126146D01*
X191835006Y-92126146D01*
X191832483Y-92025611D01*
X191821157Y-91496445D01*
X192762478Y-91496445D01*
G36*
X192762478Y-91496445D02*
G01*
X194394667Y-91496445D01*
X194394667Y-91835111D01*
X193442732Y-91835111D01*
X193429350Y-92182493D01*
X193423342Y-92312532D01*
X193413488Y-92436062D01*
X193398725Y-92529643D01*
X193376572Y-92608005D01*
X193344547Y-92685878D01*
X193294529Y-92782066D01*
X193165662Y-92950917D01*
X193006419Y-93072518D01*
X192818237Y-93145929D01*
X192602556Y-93170210D01*
X192500309Y-93164928D01*
X192301851Y-93119470D01*
X192135734Y-93028142D01*
X192003202Y-92891762D01*
X191905501Y-92711151D01*
X191898278Y-92692392D01*
X191877602Y-92629600D01*
X191862247Y-92560966D01*
X191851135Y-92476371D01*
X191843190Y-92365695D01*
X191837332Y-92218815D01*
X191835006Y-92126146D01*
X192113029Y-92126146D01*
X192123750Y-92279351D01*
X192146134Y-92423732D01*
X192177541Y-92543457D01*
X192215333Y-92622695D01*
X192323500Y-92728791D01*
X192458444Y-92796400D01*
X192604993Y-92821132D01*
X192752179Y-92804307D01*
X192889032Y-92747246D01*
X193004580Y-92651268D01*
X193087855Y-92517694D01*
X193097580Y-92487755D01*
X193116402Y-92396211D01*
X193132889Y-92275621D01*
X193144314Y-92144042D01*
X193147022Y-92097542D01*
X193151634Y-91980664D01*
X193149327Y-91906934D01*
X193139311Y-91866434D01*
X193120794Y-91849246D01*
X193095549Y-91845615D01*
X193019726Y-91841999D01*
X192905291Y-91839999D01*
X192762478Y-91839767D01*
X192601520Y-91841457D01*
X192122778Y-91849222D01*
X192114186Y-92015806D01*
X192113029Y-92126146D01*
X191835006Y-92126146D01*
X191832483Y-92025611D01*
X191821157Y-91496445D01*
X192762478Y-91496445D01*
G37*
X194380556Y-93594933D02*
X194154778Y-93675060D01*
X194133609Y-93682579D01*
X194009891Y-93726750D01*
X193894168Y-93768392D01*
X193809056Y-93799372D01*
X193689111Y-93843557D01*
X193689111Y-94960959D01*
X194041889Y-95084026D01*
X194394667Y-95207092D01*
X194394667Y-95383768D01*
X194392099Y-95467698D01*
X194384452Y-95534170D01*
X194373500Y-95559165D01*
X194344431Y-95549843D01*
X194267463Y-95522997D01*
X194147938Y-95480525D01*
X193991126Y-95424321D01*
X193802298Y-95356281D01*
X193586728Y-95278299D01*
X193349686Y-95192271D01*
X193096445Y-95100092D01*
X191840556Y-94642298D01*
X191832414Y-94413363D01*
X191831987Y-94400716D01*
X192165111Y-94400716D01*
X192165966Y-94402234D01*
X192199576Y-94420350D01*
X192274885Y-94451954D01*
X192381952Y-94493051D01*
X192510834Y-94539647D01*
X192642443Y-94586088D01*
X192815966Y-94647637D01*
X192981984Y-94706825D01*
X193117611Y-94755511D01*
X193378667Y-94849747D01*
X193378667Y-94398411D01*
X193378074Y-94296687D01*
X193375116Y-94159127D01*
X193370097Y-94050449D01*
X193363495Y-93979838D01*
X193355783Y-93956482D01*
X193348208Y-93959345D01*
X193295960Y-93978368D01*
X193201921Y-94012284D01*
X193074087Y-94058219D01*
X192920450Y-94113300D01*
X192749005Y-94174651D01*
X192672236Y-94202248D01*
X192509975Y-94261637D01*
X192370518Y-94314127D01*
X192261479Y-94356768D01*
X192190472Y-94386614D01*
X192165111Y-94400716D01*
X191831987Y-94400716D01*
X191831528Y-94387149D01*
X191830071Y-94280838D01*
X191835415Y-94216371D01*
X191849620Y-94181639D01*
X191874748Y-94164536D01*
X191898089Y-94155760D01*
X191971104Y-94128838D01*
X192085289Y-94086977D01*
X192233769Y-94032682D01*
X192409671Y-93968456D01*
X192606122Y-93896802D01*
X192816247Y-93820226D01*
X193033173Y-93741229D01*
X193250026Y-93662318D01*
X193355783Y-93623863D01*
X193459932Y-93585994D01*
X193656018Y-93514762D01*
X193831409Y-93451126D01*
X193979233Y-93397590D01*
X194092615Y-93356657D01*
X194397342Y-93246945D01*
X194380556Y-93594933D01*
G36*
X194380556Y-93594933D02*
G01*
X194154778Y-93675060D01*
X194133609Y-93682579D01*
X194009891Y-93726750D01*
X193894168Y-93768392D01*
X193809056Y-93799372D01*
X193689111Y-93843557D01*
X193689111Y-94960959D01*
X194041889Y-95084026D01*
X194394667Y-95207092D01*
X194394667Y-95383768D01*
X194392099Y-95467698D01*
X194384452Y-95534170D01*
X194373500Y-95559165D01*
X194344431Y-95549843D01*
X194267463Y-95522997D01*
X194147938Y-95480525D01*
X193991126Y-95424321D01*
X193802298Y-95356281D01*
X193586728Y-95278299D01*
X193349686Y-95192271D01*
X193096445Y-95100092D01*
X191840556Y-94642298D01*
X191832414Y-94413363D01*
X191831987Y-94400716D01*
X192165111Y-94400716D01*
X192165966Y-94402234D01*
X192199576Y-94420350D01*
X192274885Y-94451954D01*
X192381952Y-94493051D01*
X192510834Y-94539647D01*
X192642443Y-94586088D01*
X192815966Y-94647637D01*
X192981984Y-94706825D01*
X193117611Y-94755511D01*
X193378667Y-94849747D01*
X193378667Y-94398411D01*
X193378074Y-94296687D01*
X193375116Y-94159127D01*
X193370097Y-94050449D01*
X193363495Y-93979838D01*
X193355783Y-93956482D01*
X193348208Y-93959345D01*
X193295960Y-93978368D01*
X193201921Y-94012284D01*
X193074087Y-94058219D01*
X192920450Y-94113300D01*
X192749005Y-94174651D01*
X192672236Y-94202248D01*
X192509975Y-94261637D01*
X192370518Y-94314127D01*
X192261479Y-94356768D01*
X192190472Y-94386614D01*
X192165111Y-94400716D01*
X191831987Y-94400716D01*
X191831528Y-94387149D01*
X191830071Y-94280838D01*
X191835415Y-94216371D01*
X191849620Y-94181639D01*
X191874748Y-94164536D01*
X191898089Y-94155760D01*
X191971104Y-94128838D01*
X192085289Y-94086977D01*
X192233769Y-94032682D01*
X192409671Y-93968456D01*
X192606122Y-93896802D01*
X192816247Y-93820226D01*
X193033173Y-93741229D01*
X193250026Y-93662318D01*
X193355783Y-93623863D01*
X193459932Y-93585994D01*
X193656018Y-93514762D01*
X193831409Y-93451126D01*
X193979233Y-93397590D01*
X194092615Y-93356657D01*
X194397342Y-93246945D01*
X194380556Y-93594933D01*
G37*
X193742878Y-79937017D02*
X194272378Y-80024631D01*
X194347144Y-80044365D01*
X194792209Y-80161831D01*
X195298728Y-80348157D01*
X195788298Y-80583150D01*
X196257277Y-80866350D01*
X196702027Y-81197300D01*
X197118906Y-81575539D01*
X197400811Y-81878022D01*
X197750108Y-82322683D01*
X198051759Y-82796058D01*
X198304395Y-83295347D01*
X198506646Y-83817746D01*
X198657141Y-84360453D01*
X198754511Y-84920667D01*
X198782225Y-85207683D01*
X198793318Y-85757871D01*
X198750934Y-86311354D01*
X198655795Y-86860873D01*
X198508620Y-87399165D01*
X198467634Y-87517332D01*
X198367490Y-87769902D01*
X198247600Y-88037346D01*
X198116368Y-88302267D01*
X197982201Y-88547268D01*
X197853505Y-88754954D01*
X197694907Y-88990909D01*
X197861639Y-89248843D01*
X197991425Y-89459822D01*
X198249819Y-89956581D01*
X198459580Y-90478973D01*
X198618899Y-91022118D01*
X198725967Y-91581134D01*
X198729743Y-91608910D01*
X198750989Y-91829743D01*
X198763440Y-92086044D01*
X198767102Y-92360077D01*
X198761981Y-92634104D01*
X198748085Y-92890390D01*
X198725418Y-93111196D01*
X198717061Y-93169893D01*
X198607491Y-93723951D01*
X198446326Y-94258879D01*
X198235786Y-94771607D01*
X197978089Y-95259067D01*
X197675455Y-95718188D01*
X197330102Y-96145902D01*
X196944250Y-96539139D01*
X196520118Y-96894829D01*
X196059925Y-97209904D01*
X195565889Y-97481294D01*
X195340085Y-97585344D01*
X194813882Y-97784263D01*
X194275673Y-97929581D01*
X193729246Y-98021323D01*
X193178385Y-98059513D01*
X192626875Y-98044177D01*
X192078503Y-97975340D01*
X191537054Y-97853025D01*
X191006313Y-97677258D01*
X190490066Y-97448064D01*
X190312205Y-97354353D01*
X189837925Y-97061897D01*
X189395621Y-96725262D01*
X188988320Y-96348061D01*
X188619052Y-95933906D01*
X188290844Y-95486411D01*
X188006726Y-95009186D01*
X187769724Y-94505845D01*
X187582868Y-93980000D01*
X187567634Y-93928294D01*
X187441380Y-93392886D01*
X187368403Y-92848734D01*
X187348280Y-92308856D01*
X187444965Y-92308856D01*
X187465619Y-92835989D01*
X187532098Y-93356420D01*
X187643852Y-93860674D01*
X187800332Y-94339273D01*
X187822381Y-94395495D01*
X188055756Y-94907578D01*
X188334267Y-95388357D01*
X188654994Y-95835547D01*
X189015017Y-96246863D01*
X189411415Y-96620021D01*
X189841268Y-96952737D01*
X190301656Y-97242727D01*
X190789658Y-97487705D01*
X191302354Y-97685388D01*
X191836825Y-97833490D01*
X192390149Y-97929728D01*
X192451919Y-97936496D01*
X192658808Y-97950702D01*
X192898212Y-97957572D01*
X193152802Y-97957280D01*
X193405250Y-97950001D01*
X193638226Y-97935909D01*
X193834404Y-97915180D01*
X194096167Y-97872432D01*
X194641434Y-97741830D01*
X195169046Y-97558062D01*
X195676830Y-97322076D01*
X196162613Y-97034822D01*
X196624223Y-96697248D01*
X196624568Y-96696968D01*
X196763175Y-96577535D01*
X196921921Y-96428732D01*
X197088042Y-96263585D01*
X197248778Y-96095120D01*
X197391364Y-95936361D01*
X197503038Y-95800333D01*
X197682953Y-95551636D01*
X197979704Y-95068734D01*
X198226699Y-94561473D01*
X198422484Y-94033483D01*
X198565600Y-93488393D01*
X198654592Y-92929835D01*
X198661858Y-92852969D01*
X198674302Y-92637869D01*
X198679640Y-92396733D01*
X198677896Y-92150074D01*
X198669091Y-91918400D01*
X198653249Y-91722222D01*
X198615511Y-91455950D01*
X198517225Y-90996815D01*
X198379608Y-90536566D01*
X198207490Y-90088676D01*
X198005702Y-89666618D01*
X197779074Y-89283866D01*
X197714983Y-89188506D01*
X197667079Y-89123634D01*
X197635600Y-89093873D01*
X197613362Y-89092636D01*
X197593183Y-89113330D01*
X197462666Y-89278744D01*
X197267891Y-89496098D01*
X197045736Y-89718821D01*
X196808324Y-89934867D01*
X196567778Y-90132192D01*
X196294145Y-90331006D01*
X195815925Y-90624001D01*
X195314763Y-90867105D01*
X194794447Y-91059404D01*
X194258764Y-91199981D01*
X193711502Y-91287923D01*
X193156448Y-91322312D01*
X192597388Y-91302235D01*
X192038111Y-91226776D01*
X191787050Y-91174164D01*
X191254090Y-91021403D01*
X190738311Y-90817576D01*
X190244317Y-90565473D01*
X189933328Y-90367556D01*
X192390889Y-90367556D01*
X194338223Y-90367556D01*
X194338223Y-90057111D01*
X194109733Y-90057111D01*
X194196898Y-89930421D01*
X194224964Y-89886997D01*
X194283431Y-89781663D01*
X194325254Y-89686984D01*
X194346390Y-89605636D01*
X194362197Y-89471920D01*
X194362873Y-89331384D01*
X194348616Y-89204482D01*
X194319628Y-89111667D01*
X194281181Y-89047175D01*
X194158346Y-88912617D01*
X194001811Y-88822890D01*
X193983031Y-88816027D01*
X193933822Y-88801999D01*
X193873367Y-88791324D01*
X193794135Y-88783566D01*
X193688592Y-88778290D01*
X193549206Y-88775061D01*
X193368446Y-88773443D01*
X193138778Y-88773000D01*
X192405000Y-88773000D01*
X192405000Y-89083445D01*
X193124667Y-89097556D01*
X193259546Y-89100464D01*
X193483258Y-89106963D01*
X193656193Y-89114718D01*
X193782102Y-89123972D01*
X193864732Y-89134964D01*
X193907834Y-89147937D01*
X193984866Y-89213448D01*
X194043442Y-89324931D01*
X194064170Y-89464211D01*
X194045981Y-89622689D01*
X193987807Y-89791770D01*
X193963312Y-89846319D01*
X193932261Y-89913438D01*
X193901793Y-89964628D01*
X193864780Y-90002034D01*
X193814097Y-90027800D01*
X193742616Y-90044072D01*
X193643210Y-90052994D01*
X193508754Y-90056711D01*
X193332120Y-90057369D01*
X193106182Y-90057111D01*
X192390889Y-90057111D01*
X192390889Y-90367556D01*
X189933328Y-90367556D01*
X189776713Y-90267884D01*
X189340103Y-89927599D01*
X188939093Y-89547409D01*
X188578287Y-89130105D01*
X188505130Y-89036292D01*
X188342919Y-89285646D01*
X188123298Y-89658878D01*
X187916435Y-90087586D01*
X187741609Y-90536489D01*
X187606237Y-90988445D01*
X187543328Y-91272401D01*
X187470685Y-91784502D01*
X187444965Y-92308856D01*
X187348280Y-92308856D01*
X187347978Y-92300747D01*
X187379378Y-91753837D01*
X187461877Y-91212914D01*
X187594750Y-90682886D01*
X187777270Y-90168666D01*
X188008713Y-89675163D01*
X188288352Y-89207287D01*
X188356153Y-89102575D01*
X188403724Y-89017864D01*
X188423065Y-88962652D01*
X188417828Y-88929096D01*
X188358754Y-88836729D01*
X188192402Y-88568022D01*
X188053927Y-88327876D01*
X187937505Y-88104661D01*
X187837311Y-87886744D01*
X187747521Y-87662494D01*
X187662312Y-87420281D01*
X187541562Y-87006673D01*
X187430920Y-86455120D01*
X187392970Y-86077778D01*
X191770000Y-86077778D01*
X191770490Y-86578722D01*
X191770671Y-86630311D01*
X191777864Y-86914759D01*
X191797111Y-87152511D01*
X191830609Y-87351251D01*
X191880557Y-87518664D01*
X191949150Y-87662434D01*
X192038586Y-87790246D01*
X192151061Y-87909784D01*
X192167250Y-87924805D01*
X192368757Y-88072430D01*
X192405000Y-88089016D01*
X192594212Y-88175605D01*
X192835000Y-88234512D01*
X193082506Y-88249333D01*
X193328115Y-88220249D01*
X193563213Y-88147444D01*
X193779184Y-88031099D01*
X193967413Y-87871395D01*
X193972417Y-87866084D01*
X194105805Y-87702394D01*
X194200178Y-87530669D01*
X194268508Y-87327472D01*
X194271510Y-87315312D01*
X194289794Y-87206500D01*
X194305934Y-87049669D01*
X194319305Y-86852096D01*
X194329279Y-86621056D01*
X194347144Y-86077778D01*
X191770000Y-86077778D01*
X187392970Y-86077778D01*
X187375047Y-85899574D01*
X187373548Y-85343727D01*
X187426028Y-84791268D01*
X187532093Y-84245890D01*
X187691349Y-83711284D01*
X187903401Y-83191139D01*
X188167855Y-82689149D01*
X188373580Y-82371058D01*
X188505130Y-82200202D01*
X188672862Y-81982355D01*
X189010894Y-81610850D01*
X189377863Y-81266354D01*
X189763959Y-80958678D01*
X190159371Y-80697633D01*
X190566643Y-80478338D01*
X191077724Y-80258797D01*
X191600975Y-80091597D01*
X192132756Y-79976278D01*
X192669427Y-79912381D01*
X193207348Y-79899447D01*
X193742878Y-79937017D01*
G36*
X193742878Y-79937017D02*
G01*
X194272378Y-80024631D01*
X194347144Y-80044365D01*
X194792209Y-80161831D01*
X195298728Y-80348157D01*
X195788298Y-80583150D01*
X196257277Y-80866350D01*
X196702027Y-81197300D01*
X197118906Y-81575539D01*
X197400811Y-81878022D01*
X197750108Y-82322683D01*
X198051759Y-82796058D01*
X198304395Y-83295347D01*
X198506646Y-83817746D01*
X198657141Y-84360453D01*
X198754511Y-84920667D01*
X198782225Y-85207683D01*
X198793318Y-85757871D01*
X198750934Y-86311354D01*
X198655795Y-86860873D01*
X198508620Y-87399165D01*
X198467634Y-87517332D01*
X198367490Y-87769902D01*
X198247600Y-88037346D01*
X198116368Y-88302267D01*
X197982201Y-88547268D01*
X197853505Y-88754954D01*
X197694907Y-88990909D01*
X197861639Y-89248843D01*
X197991425Y-89459822D01*
X198249819Y-89956581D01*
X198459580Y-90478973D01*
X198618899Y-91022118D01*
X198725967Y-91581134D01*
X198729743Y-91608910D01*
X198750989Y-91829743D01*
X198763440Y-92086044D01*
X198767102Y-92360077D01*
X198761981Y-92634104D01*
X198748085Y-92890390D01*
X198725418Y-93111196D01*
X198717061Y-93169893D01*
X198607491Y-93723951D01*
X198446326Y-94258879D01*
X198235786Y-94771607D01*
X197978089Y-95259067D01*
X197675455Y-95718188D01*
X197330102Y-96145902D01*
X196944250Y-96539139D01*
X196520118Y-96894829D01*
X196059925Y-97209904D01*
X195565889Y-97481294D01*
X195340085Y-97585344D01*
X194813882Y-97784263D01*
X194275673Y-97929581D01*
X193729246Y-98021323D01*
X193178385Y-98059513D01*
X192626875Y-98044177D01*
X192078503Y-97975340D01*
X191537054Y-97853025D01*
X191006313Y-97677258D01*
X190490066Y-97448064D01*
X190312205Y-97354353D01*
X189837925Y-97061897D01*
X189395621Y-96725262D01*
X188988320Y-96348061D01*
X188619052Y-95933906D01*
X188290844Y-95486411D01*
X188006726Y-95009186D01*
X187769724Y-94505845D01*
X187582868Y-93980000D01*
X187567634Y-93928294D01*
X187441380Y-93392886D01*
X187368403Y-92848734D01*
X187348280Y-92308856D01*
X187444965Y-92308856D01*
X187465619Y-92835989D01*
X187532098Y-93356420D01*
X187643852Y-93860674D01*
X187800332Y-94339273D01*
X187822381Y-94395495D01*
X188055756Y-94907578D01*
X188334267Y-95388357D01*
X188654994Y-95835547D01*
X189015017Y-96246863D01*
X189411415Y-96620021D01*
X189841268Y-96952737D01*
X190301656Y-97242727D01*
X190789658Y-97487705D01*
X191302354Y-97685388D01*
X191836825Y-97833490D01*
X192390149Y-97929728D01*
X192451919Y-97936496D01*
X192658808Y-97950702D01*
X192898212Y-97957572D01*
X193152802Y-97957280D01*
X193405250Y-97950001D01*
X193638226Y-97935909D01*
X193834404Y-97915180D01*
X194096167Y-97872432D01*
X194641434Y-97741830D01*
X195169046Y-97558062D01*
X195676830Y-97322076D01*
X196162613Y-97034822D01*
X196624223Y-96697248D01*
X196624568Y-96696968D01*
X196763175Y-96577535D01*
X196921921Y-96428732D01*
X197088042Y-96263585D01*
X197248778Y-96095120D01*
X197391364Y-95936361D01*
X197503038Y-95800333D01*
X197682953Y-95551636D01*
X197979704Y-95068734D01*
X198226699Y-94561473D01*
X198422484Y-94033483D01*
X198565600Y-93488393D01*
X198654592Y-92929835D01*
X198661858Y-92852969D01*
X198674302Y-92637869D01*
X198679640Y-92396733D01*
X198677896Y-92150074D01*
X198669091Y-91918400D01*
X198653249Y-91722222D01*
X198615511Y-91455950D01*
X198517225Y-90996815D01*
X198379608Y-90536566D01*
X198207490Y-90088676D01*
X198005702Y-89666618D01*
X197779074Y-89283866D01*
X197714983Y-89188506D01*
X197667079Y-89123634D01*
X197635600Y-89093873D01*
X197613362Y-89092636D01*
X197593183Y-89113330D01*
X197462666Y-89278744D01*
X197267891Y-89496098D01*
X197045736Y-89718821D01*
X196808324Y-89934867D01*
X196567778Y-90132192D01*
X196294145Y-90331006D01*
X195815925Y-90624001D01*
X195314763Y-90867105D01*
X194794447Y-91059404D01*
X194258764Y-91199981D01*
X193711502Y-91287923D01*
X193156448Y-91322312D01*
X192597388Y-91302235D01*
X192038111Y-91226776D01*
X191787050Y-91174164D01*
X191254090Y-91021403D01*
X190738311Y-90817576D01*
X190244317Y-90565473D01*
X189933328Y-90367556D01*
X192390889Y-90367556D01*
X194338223Y-90367556D01*
X194338223Y-90057111D01*
X194109733Y-90057111D01*
X194196898Y-89930421D01*
X194224964Y-89886997D01*
X194283431Y-89781663D01*
X194325254Y-89686984D01*
X194346390Y-89605636D01*
X194362197Y-89471920D01*
X194362873Y-89331384D01*
X194348616Y-89204482D01*
X194319628Y-89111667D01*
X194281181Y-89047175D01*
X194158346Y-88912617D01*
X194001811Y-88822890D01*
X193983031Y-88816027D01*
X193933822Y-88801999D01*
X193873367Y-88791324D01*
X193794135Y-88783566D01*
X193688592Y-88778290D01*
X193549206Y-88775061D01*
X193368446Y-88773443D01*
X193138778Y-88773000D01*
X192405000Y-88773000D01*
X192405000Y-89083445D01*
X193124667Y-89097556D01*
X193259546Y-89100464D01*
X193483258Y-89106963D01*
X193656193Y-89114718D01*
X193782102Y-89123972D01*
X193864732Y-89134964D01*
X193907834Y-89147937D01*
X193984866Y-89213448D01*
X194043442Y-89324931D01*
X194064170Y-89464211D01*
X194045981Y-89622689D01*
X193987807Y-89791770D01*
X193963312Y-89846319D01*
X193932261Y-89913438D01*
X193901793Y-89964628D01*
X193864780Y-90002034D01*
X193814097Y-90027800D01*
X193742616Y-90044072D01*
X193643210Y-90052994D01*
X193508754Y-90056711D01*
X193332120Y-90057369D01*
X193106182Y-90057111D01*
X192390889Y-90057111D01*
X192390889Y-90367556D01*
X189933328Y-90367556D01*
X189776713Y-90267884D01*
X189340103Y-89927599D01*
X188939093Y-89547409D01*
X188578287Y-89130105D01*
X188505130Y-89036292D01*
X188342919Y-89285646D01*
X188123298Y-89658878D01*
X187916435Y-90087586D01*
X187741609Y-90536489D01*
X187606237Y-90988445D01*
X187543328Y-91272401D01*
X187470685Y-91784502D01*
X187444965Y-92308856D01*
X187348280Y-92308856D01*
X187347978Y-92300747D01*
X187379378Y-91753837D01*
X187461877Y-91212914D01*
X187594750Y-90682886D01*
X187777270Y-90168666D01*
X188008713Y-89675163D01*
X188288352Y-89207287D01*
X188356153Y-89102575D01*
X188403724Y-89017864D01*
X188423065Y-88962652D01*
X188417828Y-88929096D01*
X188358754Y-88836729D01*
X188192402Y-88568022D01*
X188053927Y-88327876D01*
X187937505Y-88104661D01*
X187837311Y-87886744D01*
X187747521Y-87662494D01*
X187662312Y-87420281D01*
X187541562Y-87006673D01*
X187430920Y-86455120D01*
X187392970Y-86077778D01*
X191770000Y-86077778D01*
X191770490Y-86578722D01*
X191770671Y-86630311D01*
X191777864Y-86914759D01*
X191797111Y-87152511D01*
X191830609Y-87351251D01*
X191880557Y-87518664D01*
X191949150Y-87662434D01*
X192038586Y-87790246D01*
X192151061Y-87909784D01*
X192167250Y-87924805D01*
X192368757Y-88072430D01*
X192405000Y-88089016D01*
X192594212Y-88175605D01*
X192835000Y-88234512D01*
X193082506Y-88249333D01*
X193328115Y-88220249D01*
X193563213Y-88147444D01*
X193779184Y-88031099D01*
X193967413Y-87871395D01*
X193972417Y-87866084D01*
X194105805Y-87702394D01*
X194200178Y-87530669D01*
X194268508Y-87327472D01*
X194271510Y-87315312D01*
X194289794Y-87206500D01*
X194305934Y-87049669D01*
X194319305Y-86852096D01*
X194329279Y-86621056D01*
X194347144Y-86077778D01*
X191770000Y-86077778D01*
X187392970Y-86077778D01*
X187375047Y-85899574D01*
X187373548Y-85343727D01*
X187426028Y-84791268D01*
X187532093Y-84245890D01*
X187691349Y-83711284D01*
X187903401Y-83191139D01*
X188167855Y-82689149D01*
X188373580Y-82371058D01*
X188505130Y-82200202D01*
X188672862Y-81982355D01*
X189010894Y-81610850D01*
X189377863Y-81266354D01*
X189763959Y-80958678D01*
X190159371Y-80697633D01*
X190566643Y-80478338D01*
X191077724Y-80258797D01*
X191600975Y-80091597D01*
X192132756Y-79976278D01*
X192669427Y-79912381D01*
X193207348Y-79899447D01*
X193742878Y-79937017D01*
G37*
%LPC*%
D13*
X93980000Y-118110000D03*
X93980000Y-115610000D03*
X93980000Y-120650000D03*
X93980000Y-123150000D03*
X130810000Y-71120000D03*
X130810000Y-68620000D03*
D14*
X109220000Y-80010000D03*
D13*
X111720000Y-80010000D03*
D14*
X115570000Y-80010000D03*
D13*
X118070000Y-80010000D03*
D15*
X100330000Y-71120000D03*
D13*
X100330000Y-68620000D03*
D15*
X123190000Y-81280000D03*
D13*
X123190000Y-78780000D03*
X125730000Y-95250000D03*
X125730000Y-97750000D03*
X113030000Y-114300000D03*
X113030000Y-116800000D03*
X115570000Y-69850000D03*
X118070000Y-69850000D03*
X125730000Y-118110000D03*
X125730000Y-120610000D03*
X185420000Y-121920000D03*
X185420000Y-124420000D03*
X158750000Y-59690000D03*
X161250000Y-59690000D03*
D15*
X162560000Y-66040000D03*
D13*
X162560000Y-63540000D03*
D16*
X95250000Y-110490000D03*
D17*
X97790000Y-110490000D03*
D18*
X196850000Y-73660000D03*
D17*
X194310000Y-73660000D03*
D19*
X170180000Y-64770000D03*
D20*
X180340000Y-64770000D03*
D21*
X99060000Y-99060000D03*
D22*
X96520000Y-99060000D03*
X99060000Y-96520000D03*
X96520000Y-96520000D03*
X99060000Y-93980000D03*
X96520000Y-93980000D03*
D23*
X128530000Y-59390000D03*
X103530000Y-59390000D03*
D24*
X110490000Y-59690000D03*
D13*
X113260000Y-59690000D03*
X116030000Y-59690000D03*
X118800000Y-59690000D03*
X121570000Y-59690000D03*
X111875000Y-56850000D03*
X114645000Y-56850000D03*
X117415000Y-56850000D03*
X120185000Y-56850000D03*
D25*
X190500000Y-64770000D03*
D26*
X190500000Y-58770000D03*
D27*
X185800000Y-61770000D03*
D28*
X198120000Y-107950000D03*
D29*
X190500000Y-107950000D03*
D28*
X198120000Y-110490000D03*
D29*
X190500000Y-110490000D03*
D28*
X198120000Y-113030000D03*
D29*
X190500000Y-113030000D03*
D28*
X190500000Y-115570000D03*
D29*
X198120000Y-115570000D03*
D28*
X198120000Y-118110000D03*
D29*
X190500000Y-118110000D03*
D28*
X198120000Y-120650000D03*
D29*
X190500000Y-120650000D03*
D28*
X198120000Y-105410000D03*
D29*
X190500000Y-105410000D03*
D28*
X190500000Y-123190000D03*
D29*
X198120000Y-123190000D03*
D28*
X190500000Y-102870000D03*
D29*
X198120000Y-102870000D03*
D28*
X93980000Y-106680000D03*
D29*
X101600000Y-106680000D03*
D28*
X194310000Y-68580000D03*
D29*
X186690000Y-68580000D03*
D28*
X104140000Y-123190000D03*
D29*
X104140000Y-115570000D03*
D30*
X95250000Y-86360000D03*
X95250000Y-79860000D03*
X99750000Y-86360000D03*
X99750000Y-79860000D03*
D31*
X178630000Y-59690000D03*
X170430000Y-59690000D03*
D32*
X176530000Y-59690000D03*
D33*
X174530000Y-59690000D03*
X172530000Y-59690000D03*
D14*
X109220000Y-91440000D03*
D34*
X109220000Y-93980000D03*
X109220000Y-96520000D03*
X109220000Y-99060000D03*
X109220000Y-101600000D03*
X109220000Y-104140000D03*
X109220000Y-106680000D03*
X109220000Y-109220000D03*
X109220000Y-111760000D03*
X109220000Y-114300000D03*
X109220000Y-116840000D03*
X109220000Y-119380000D03*
X109220000Y-121920000D03*
X109220000Y-124460000D03*
X116840000Y-124460000D03*
X116840000Y-121920000D03*
X116840000Y-119380000D03*
X116840000Y-116840000D03*
X116840000Y-114300000D03*
X116840000Y-111760000D03*
X116840000Y-109220000D03*
X116840000Y-106680000D03*
X116840000Y-104140000D03*
X116840000Y-101600000D03*
X116840000Y-99060000D03*
X116840000Y-96520000D03*
X116840000Y-93980000D03*
X116840000Y-91440000D03*
D14*
X121920000Y-87630000D03*
D34*
X121920000Y-90170000D03*
X121920000Y-92710000D03*
X121920000Y-95250000D03*
X121920000Y-97790000D03*
X121920000Y-100330000D03*
X121920000Y-102870000D03*
X121920000Y-105410000D03*
X129540000Y-105410000D03*
X129540000Y-102870000D03*
X129540000Y-100330000D03*
X129540000Y-97790000D03*
X129540000Y-95250000D03*
X129540000Y-92710000D03*
X129540000Y-90170000D03*
X129540000Y-87630000D03*
D14*
X121920000Y-110490000D03*
D34*
X121920000Y-113030000D03*
X121920000Y-115570000D03*
X121920000Y-118110000D03*
X121920000Y-120650000D03*
X121920000Y-123190000D03*
X121920000Y-125730000D03*
X121920000Y-128270000D03*
X129540000Y-128270000D03*
X129540000Y-125730000D03*
X129540000Y-123190000D03*
X129540000Y-120650000D03*
X129540000Y-118110000D03*
X129540000Y-115570000D03*
X129540000Y-113030000D03*
X129540000Y-110490000D03*
D35*
X151130000Y-96520000D03*
D36*
X151130000Y-99060000D03*
X151130000Y-101600000D03*
X151130000Y-104140000D03*
X151130000Y-106680000D03*
X151130000Y-109220000D03*
X151130000Y-111760000D03*
X151130000Y-114300000D03*
X151130000Y-116840000D03*
X151130000Y-119380000D03*
X158750000Y-119380000D03*
X158750000Y-116840000D03*
X158750000Y-114300000D03*
X158750000Y-111760000D03*
X158750000Y-109220000D03*
X158750000Y-106680000D03*
X158750000Y-104140000D03*
X158750000Y-101600000D03*
X158750000Y-99060000D03*
X158750000Y-96520000D03*
D15*
X107950000Y-73660000D03*
D34*
X110490000Y-73660000D03*
X113030000Y-73660000D03*
X115570000Y-73660000D03*
X118110000Y-73660000D03*
X120650000Y-73660000D03*
X123190000Y-73660000D03*
X125730000Y-73660000D03*
X125730000Y-66040000D03*
X123190000Y-66040000D03*
X120650000Y-66040000D03*
X118110000Y-66040000D03*
X115570000Y-66040000D03*
X113030000Y-66040000D03*
X110490000Y-66040000D03*
X107950000Y-66040000D03*
D37*
X138280000Y-62230000D03*
D38*
X154940000Y-64770000D03*
D39*
X154940000Y-62230000D03*
X154940000Y-59690000D03*
D40*
X99060000Y-121920000D03*
X99060000Y-117040000D03*
D13*
X165100000Y-121920000D03*
X165100000Y-124420000D03*
X138430000Y-118110000D03*
X138430000Y-120610000D03*
X138430000Y-95250000D03*
X138430000Y-97750000D03*
D16*
X158750000Y-129540000D03*
D17*
X161290000Y-129540000D03*
D16*
X179070000Y-129540000D03*
D17*
X181610000Y-129540000D03*
D28*
X154940000Y-129540000D03*
D29*
X147320000Y-129540000D03*
D28*
X175260000Y-129540000D03*
D29*
X167640000Y-129540000D03*
D14*
X134620000Y-87630000D03*
D34*
X134620000Y-90170000D03*
X134620000Y-92710000D03*
X134620000Y-95250000D03*
X134620000Y-97790000D03*
X134620000Y-100330000D03*
X134620000Y-102870000D03*
X134620000Y-105410000D03*
X142240000Y-105410000D03*
X142240000Y-102870000D03*
X142240000Y-100330000D03*
X142240000Y-97790000D03*
X142240000Y-95250000D03*
X142240000Y-92710000D03*
X142240000Y-90170000D03*
X142240000Y-87630000D03*
D14*
X134620000Y-110490000D03*
D34*
X134620000Y-113030000D03*
X134620000Y-115570000D03*
X134620000Y-118110000D03*
X134620000Y-120650000D03*
X134620000Y-123190000D03*
X134620000Y-125730000D03*
X134620000Y-128270000D03*
X142240000Y-128270000D03*
X142240000Y-125730000D03*
X142240000Y-123190000D03*
X142240000Y-120650000D03*
X142240000Y-118110000D03*
X142240000Y-115570000D03*
X142240000Y-113030000D03*
X142240000Y-110490000D03*
D35*
X171450000Y-91440000D03*
D36*
X171450000Y-93980000D03*
X171450000Y-96520000D03*
X171450000Y-99060000D03*
X171450000Y-101600000D03*
X171450000Y-104140000D03*
X171450000Y-106680000D03*
X171450000Y-109220000D03*
X171450000Y-111760000D03*
X171450000Y-114300000D03*
X171450000Y-116840000D03*
X171450000Y-119380000D03*
X179070000Y-119380000D03*
X179070000Y-116840000D03*
X179070000Y-114300000D03*
X179070000Y-111760000D03*
X179070000Y-109220000D03*
X179070000Y-106680000D03*
X179070000Y-104140000D03*
X179070000Y-101600000D03*
X179070000Y-99060000D03*
X179070000Y-96520000D03*
X179070000Y-93980000D03*
X179070000Y-91440000D03*
D41*
X95250000Y-58420000D03*
X200660000Y-58420000D03*
X95250000Y-129540000D03*
X200660000Y-129540000D03*
%LPD*%
M02*
