M48
; DRILL file {KiCad 7.0.7} date Tue Oct  3 16:11:10 2023
; FORMAT={-:-/ absolute / metric / decimal}
; #@! TF.CreationDate,2023-10-03T16:11:10+02:00
; #@! TF.GenerationSoftware,Kicad,Pcbnew,7.0.7
; #@! TF.FileFunction,Plated,1,2,PTH
FMAT,2
METRIC
; #@! TA.AperFunction,Plated,PTH,ViaDrill
T1C0.400
; #@! TA.AperFunction,Plated,PTH,ComponentDrill
T2C0.700
; #@! TA.AperFunction,Plated,PTH,ComponentDrill
T3C0.800
; #@! TA.AperFunction,Plated,PTH,ComponentDrill
T4C0.900
; #@! TA.AperFunction,Plated,PTH,ComponentDrill
T5C1.000
; #@! TA.AperFunction,Plated,PTH,ComponentDrill
T6C1.016
; #@! TA.AperFunction,Plated,PTH,ComponentDrill
T7C1.100
; #@! TA.AperFunction,Plated,PTH,ComponentDrill
T8C1.500
; #@! TA.AperFunction,Plated,PTH,ComponentDrill
T9C2.700
; #@! TA.AperFunction,Plated,PTH,ComponentDrill
T10C3.200
%
G90
G05
T1
X106.568Y-114.347
X111.546Y-118.204
X118.212Y-88.755
X119.353Y-101.662
X119.353Y-123.731
X120.371Y-110.065
X120.437Y-123.689
X120.667Y-104.53
X121.438Y-108.385
X122.31Y-85.103
X123.676Y-130.278
X124.082Y-94.134
X125.1Y-86.405
X127.387Y-107.811
X130.812Y-122.233
X132.111Y-104.971
X133.148Y-86.882
X134.054Y-83.471
X137.241Y-87.066
X137.523Y-121.785
X137.524Y-116.253
X139.389Y-114.445
X156.575Y-100.087
X163.573Y-91.557
X163.876Y-120.129
X165.982Y-107.338
X169.967Y-105.635
X174.757Y-103.389
X175.439Y-108.175
X177.36Y-93.496
X180.915Y-95.545
X186.279Y-110.07
X192.419Y-121.034
X195.254Y-127.124
T2
X93.98Y-106.68
X101.6Y-106.68
X104.14Y-115.57
X104.14Y-123.19
X147.32Y-129.54
X154.94Y-129.54
X167.64Y-129.54
X175.26Y-129.54
X186.69Y-68.58
X190.5Y-102.87
X190.5Y-105.41
X190.5Y-107.95
X190.5Y-110.49
X190.5Y-113.03
X190.5Y-115.57
X190.5Y-118.11
X190.5Y-120.65
X190.5Y-123.19
X194.31Y-68.58
X198.12Y-102.87
X198.12Y-105.41
X198.12Y-107.95
X198.12Y-110.49
X198.12Y-113.03
X198.12Y-115.57
X198.12Y-118.11
X198.12Y-120.65
X198.12Y-123.19
T3
X93.98Y-115.61
X93.98Y-118.11
X93.98Y-120.65
X93.98Y-123.15
X99.06Y-117.04
X99.06Y-121.92
X100.33Y-68.62
X100.33Y-71.12
X107.95Y-66.04
X107.95Y-73.66
X109.22Y-80.01
X109.22Y-91.44
X109.22Y-93.98
X109.22Y-96.52
X109.22Y-99.06
X109.22Y-101.6
X109.22Y-104.14
X109.22Y-106.68
X109.22Y-109.22
X109.22Y-111.76
X109.22Y-114.3
X109.22Y-116.84
X109.22Y-119.38
X109.22Y-121.92
X109.22Y-124.46
X110.49Y-66.04
X110.49Y-73.66
X111.72Y-80.01
X113.03Y-66.04
X113.03Y-73.66
X113.03Y-114.3
X113.03Y-116.8
X115.57Y-66.04
X115.57Y-69.85
X115.57Y-73.66
X115.57Y-80.01
X116.84Y-91.44
X116.84Y-93.98
X116.84Y-96.52
X116.84Y-99.06
X116.84Y-101.6
X116.84Y-104.14
X116.84Y-106.68
X116.84Y-109.22
X116.84Y-111.76
X116.84Y-114.3
X116.84Y-116.84
X116.84Y-119.38
X116.84Y-121.92
X116.84Y-124.46
X118.07Y-69.85
X118.07Y-80.01
X118.11Y-66.04
X118.11Y-73.66
X120.65Y-66.04
X120.65Y-73.66
X121.92Y-87.63
X121.92Y-90.17
X121.92Y-92.71
X121.92Y-95.25
X121.92Y-97.79
X121.92Y-100.33
X121.92Y-102.87
X121.92Y-105.41
X121.92Y-110.49
X121.92Y-113.03
X121.92Y-115.57
X121.92Y-118.11
X121.92Y-120.65
X121.92Y-123.19
X121.92Y-125.73
X121.92Y-128.27
X123.19Y-66.04
X123.19Y-73.66
X123.19Y-78.78
X123.19Y-81.28
X125.73Y-66.04
X125.73Y-73.66
X125.73Y-95.25
X125.73Y-97.75
X125.73Y-118.11
X125.73Y-120.61
X129.54Y-87.63
X129.54Y-90.17
X129.54Y-92.71
X129.54Y-95.25
X129.54Y-97.79
X129.54Y-100.33
X129.54Y-102.87
X129.54Y-105.41
X129.54Y-110.49
X129.54Y-113.03
X129.54Y-115.57
X129.54Y-118.11
X129.54Y-120.65
X129.54Y-123.19
X129.54Y-125.73
X129.54Y-128.27
X130.81Y-68.62
X130.81Y-71.12
X134.62Y-87.63
X134.62Y-90.17
X134.62Y-92.71
X134.62Y-95.25
X134.62Y-97.79
X134.62Y-100.33
X134.62Y-102.87
X134.62Y-105.41
X134.62Y-110.49
X134.62Y-113.03
X134.62Y-115.57
X134.62Y-118.11
X134.62Y-120.65
X134.62Y-123.19
X134.62Y-125.73
X134.62Y-128.27
X138.43Y-95.25
X138.43Y-97.75
X138.43Y-118.11
X138.43Y-120.61
X142.24Y-87.63
X142.24Y-90.17
X142.24Y-92.71
X142.24Y-95.25
X142.24Y-97.79
X142.24Y-100.33
X142.24Y-102.87
X142.24Y-105.41
X142.24Y-110.49
X142.24Y-113.03
X142.24Y-115.57
X142.24Y-118.11
X142.24Y-120.65
X142.24Y-123.19
X142.24Y-125.73
X142.24Y-128.27
X158.75Y-59.69
X161.25Y-59.69
X162.56Y-63.54
X162.56Y-66.04
X165.1Y-121.92
X165.1Y-124.42
X172.53Y-59.69
X174.53Y-59.69
X176.53Y-59.69
X185.42Y-121.92
X185.42Y-124.42
T4
X95.25Y-110.49
X97.79Y-110.49
X158.75Y-129.54
X161.29Y-129.54
X179.07Y-129.54
X181.61Y-129.54
X194.31Y-73.66
X196.85Y-73.66
T5
X110.49Y-59.69
X111.875Y-56.85
X113.26Y-59.69
X114.645Y-56.85
X116.03Y-59.69
X117.415Y-56.85
X118.8Y-59.69
X120.185Y-56.85
X121.57Y-59.69
X151.13Y-96.52
X151.13Y-99.06
X151.13Y-101.6
X151.13Y-104.14
X151.13Y-106.68
X151.13Y-109.22
X151.13Y-111.76
X151.13Y-114.3
X151.13Y-116.84
X151.13Y-119.38
X158.75Y-96.52
X158.75Y-99.06
X158.75Y-101.6
X158.75Y-104.14
X158.75Y-106.68
X158.75Y-109.22
X158.75Y-111.76
X158.75Y-114.3
X158.75Y-116.84
X158.75Y-119.38
X171.45Y-91.44
X171.45Y-93.98
X171.45Y-96.52
X171.45Y-99.06
X171.45Y-101.6
X171.45Y-104.14
X171.45Y-106.68
X171.45Y-109.22
X171.45Y-111.76
X171.45Y-114.3
X171.45Y-116.84
X171.45Y-119.38
X179.07Y-91.44
X179.07Y-93.98
X179.07Y-96.52
X179.07Y-99.06
X179.07Y-101.6
X179.07Y-104.14
X179.07Y-106.68
X179.07Y-109.22
X179.07Y-111.76
X179.07Y-114.3
X179.07Y-116.84
X179.07Y-119.38
T6
X96.52Y-93.98
X96.52Y-96.52
X96.52Y-99.06
X99.06Y-93.98
X99.06Y-96.52
X99.06Y-99.06
T7
X95.25Y-79.86
X95.25Y-86.36
X99.75Y-79.86
X99.75Y-86.36
X154.94Y-59.69
X154.94Y-62.23
X154.94Y-64.77
X170.18Y-64.77
X180.34Y-64.77
T8
X170.43Y-59.69
X178.63Y-59.69
T9
X95.25Y-58.42
X95.25Y-129.54
X200.66Y-58.42
X200.66Y-129.54
T10
X103.53Y-59.39
X128.53Y-59.39
T5
G00X185.8Y-60.77
M15
G01X185.8Y-62.77
M16
G05
G00X191.5Y-58.77
M15
G01X189.5Y-58.77
M16
G05
G00X191.5Y-64.77
M15
G01X189.5Y-64.77
M16
G05
T0
M30
